<?xml version="1.0" encoding="UTF-8" standalone="no"?>
<!DOCTYPE svg PUBLIC "-//W3C//DTD SVG 20010904//EN"
              "http://www.w3.org/TR/2001/REC-SVG-20010904/DTD/svg10.dtd">

<svg xmlns="http://www.w3.org/2000/svg"
     preserveAspectRatio="none"
     viewBox="0 0 512 512">
  <path id="Unnamed"
        fill="#CB6A37" stroke="none" stroke-width="1"
        d="M 0.00,3.78
           C -0.04,3.75 186.75,13.50 256.00,70.00
             301.55,112.58 370.00,131.50 394.50,135.00
             456.67,140.33 512.85,95.48 512.00,94.73
             512.00,94.73 512.00,0.00 512.00,0.00
             512.00,0.00 -0.04,-0.04 -0.04,-0.04
             -0.04,-0.04 0.00,3.78 0.00,3.78 Z
           M 0.00,413.33
           C -0.10,413.34 47.00,380.00 118.67,376.00
             161.00,373.00 223.00,408.00 257.33,439.33
             340.67,497.67 511.90,495.49 512.00,495.09
             512.00,495.09 512.03,512.00 512.03,512.00
             512.03,512.00 0.00,512.00 0.00,512.00
             0.00,512.00 0.00,413.33 0.00,413.33 Z" />
</svg>
