<?xml version="1.0" encoding="UTF-8" standalone="no"?>
<!DOCTYPE svg PUBLIC "-//W3C//DTD SVG 20010904//EN"
              "http://www.w3.org/TR/2001/REC-SVG-20010904/DTD/svg10.dtd">

<svg xmlns="http://www.w3.org/2000/svg"
     preserveAspectRatio="none"
     viewBox="0 0 512 512">
  <path id="Unnamed"
        fill="#C23E31" stroke="none" stroke-width="1"
        d="M 0.09,0.18
           C 0.09,0.18 62.00,84.00 62.00,84.00
             62.00,84.00 154.00,42.00 154.00,42.00
             154.00,42.00 199.00,110.00 199.00,110.00
             199.00,110.00 277.00,105.00 277.00,105.00
             277.00,105.00 332.00,160.00 332.00,160.00
             332.00,160.00 396.00,122.00 396.00,122.00
             396.00,122.00 428.00,181.00 428.00,181.00
             428.00,181.00 488.00,161.00 488.00,161.00
             488.00,161.00 512.00,177.00 512.00,177.00
             512.00,177.00 512.00,0.00 512.00,0.00
             512.00,0.00 0.0,0 0,0 Z
           M 0.00,359.00
           C 0.00,359.00 87.00,389.00 87.00,389.00
             87.00,389.00 154.00,367.00 154.00,367.00
             154.00,367.00 217.00,419.00 217.00,419.00
             217.00,419.00 267.00,399.00 267.00,399.00
             267.00,399.00 289.00,440.00 289.00,440.00
             289.00,440.00 349.00,419.00 349.00,419.00
             349.00,419.00 410.00,452.00 410.00,452.00
             410.00,452.00 461.00,433.00 461.00,433.00
             461.00,433.00 512.00,467.00 512.00,467.00
             512.00,467.00 512.00,512.00 512.00,512.00
             512.00,512.00 0.00,512.00 0.00,512.00
             0.00,512.00 0.00,359.00 0.00,359.00 Z" />
</svg>
